<svg width="512" height="512" viewBox="0 0 512 512" fill="none" xmlns="http://www.w3.org/2000/svg">
  <rect width="512" height="512" rx="128" fill="#3B82F6"/>
  
  <!-- Microphone base -->
  <rect x="176" y="320" width="160" height="32" rx="16" fill="white"/>
  
  <!-- Microphone head -->
  <ellipse cx="256" cy="280" rx="48" ry="64" fill="white"/>
  
  <!-- Sound waves -->
  <path d="M 120 200 Q 140 180 160 200 Q 180 220 200 200" stroke="white" stroke-width="8" fill="none" opacity="0.8"/>
  <path d="M 312 200 Q 332 180 352 200 Q 372 220 392 200" stroke="white" stroke-width="8" fill="none" opacity="0.8"/>
  
  <!-- AI brain pattern -->
  <circle cx="256" cy="160" r="24" fill="white" opacity="0.9"/>
  <circle cx="220" cy="140" r="8" fill="white" opacity="0.7"/>
  <circle cx="292" cy="140" r="8" fill="white" opacity="0.7"/>
  <circle cx="220" cy="180" r="8" fill="white" opacity="0.7"/>
  <circle cx="292" cy="180" r="8" fill="white" opacity="0.7"/>
  
  <!-- Connection lines -->
  <line x1="220" y1="140" x2="256" y2="160" stroke="white" stroke-width="2" opacity="0.6"/>
  <line x1="292" y1="140" x2="256" y2="160" stroke="white" stroke-width="2" opacity="0.6"/>
  <line x1="220" y1="180" x2="256" y2="160" stroke="white" stroke-width="2" opacity="0.6"/>
  <line x1="292" y1="180" x2="256" y2="160" stroke="white" stroke-width="2" opacity="0.6"/>
</svg> 