<?xml version="1.0" encoding="UTF-8" standalone="no" ?>
<!DOCTYPE svg PUBLIC "-//W3C//DTD SVG 1.1//EN" "http://www.w3.org/Graphics/SVG/1.1/DTD/svg11.dtd">
<svg xmlns="http://www.w3.org/2000/svg" xmlns:xlink="http://www.w3.org/1999/xlink" version="1.1" width="1080" height="1080" viewBox="0 0 1080 1080" xml:space="preserve">
<desc>Created with Fabric.js 5.2.4</desc>
<defs>
</defs>
<g transform="matrix(1 0 0 1 540 540)" id="eae3f964-d833-4ed8-9509-48e925fe6b1b"  >
<rect style="stroke: none; stroke-width: 1; stroke-dasharray: none; stroke-linecap: butt; stroke-dashoffset: 0; stroke-linejoin: miter; stroke-miterlimit: 4; fill: rgb(255,255,255); fill-rule: nonzero; opacity: 1; visibility: hidden;" vector-effect="non-scaling-stroke"  x="-540" y="-540" rx="0" ry="0" width="1080" height="1080" />
</g>
<g transform="matrix(1 0 0 1 540 540)" id="61d9d083-92b7-4138-a2b2-55e0ea48b7b9"  >
</g>
<g transform="matrix(2.18 0 0 2.18 538.77 543.34)"  >
<g style="" vector-effect="non-scaling-stroke"   >
		<g transform="matrix(1.33 0 0 1.33 0 0)"  >
<rect style="stroke: none; stroke-width: 1; stroke-dasharray: none; stroke-linecap: butt; stroke-dashoffset: 0; stroke-linejoin: miter; stroke-miterlimit: 4; fill: rgb(255,255,255); fill-rule: nonzero; opacity: 1;" vector-effect="non-scaling-stroke"  x="-187.5" y="-187.4999955" rx="0" ry="0" width="375" height="374.999991" />
</g>
		<g transform="matrix(1.33 0 0 1.33 0 0)"  >
<rect style="stroke: none; stroke-width: 1; stroke-dasharray: none; stroke-linecap: butt; stroke-dashoffset: 0; stroke-linejoin: miter; stroke-miterlimit: 4; fill: rgb(255,255,255); fill-rule: nonzero; opacity: 1;" vector-effect="non-scaling-stroke"  x="-187.5" y="-187.4999955" rx="0" ry="0" width="375" height="374.999991" />
</g>
		<g transform="matrix(1 0 0 1 -0.01 -0.46)" clip-path="url(#CLIPPATH_4)"  >
<clipPath id="CLIPPATH_4" >
	<path transform="matrix(1.33 0 0 1.33 0 0) translate(-187.5, -187.16)" id="8" clip-path="url(#undefined)" d="M 187.496094 7.203125 C 88.109375 7.203125 7.542969 87.769531 7.542969 187.15625 C 7.542969 286.539062 88.109375 367.109375 187.496094 367.109375 C 286.878906 367.109375 367.449219 286.539062 367.449219 187.15625 C 367.449219 87.769531 286.878906 7.203125 187.496094 7.203125 Z M 187.496094 7.203125" stroke-linecap="round" />
</clipPath>
<path style="stroke: rgb(37,99,235); stroke-width: 20; stroke-dasharray: none; stroke-linecap: butt; stroke-dashoffset: 0; stroke-linejoin: miter; stroke-miterlimit: 4; fill: none; fill-rule: nonzero; opacity: 1;" vector-effect="non-scaling-stroke"  transform=" translate(-239.94, -239.94)" d="M 239.939024 0.00182362 C 107.423391 0.00182362 0.00150873 107.423706 0.00150873 239.939339 C 0.00150873 372.449765 107.423391 479.876855 239.939024 479.876855 C 372.44945 479.876855 479.87654 372.449765 479.87654 239.939339 C 479.87654 107.423706 372.44945 0.00182362 239.939024 0.00182362 Z M 239.939024 0.00182362" stroke-linecap="round" />
</g>
		<g transform="matrix(1.33 0 0 1.33 17.03 -18.15)" clip-path="url(#CLIPPATH_5)"  >
<clipPath id="CLIPPATH_5" >
	<path transform="matrix(1 0 0 1 -0.27 0.38) translate(-200, -174.27)" id="d3d10d2746" d="M 116 128.539062 L 284 128.539062 L 284 220 L 116 220 Z M 116 128.539062" stroke-linecap="round" />
</clipPath>
<path style="stroke: none; stroke-width: 1; stroke-dasharray: none; stroke-linecap: butt; stroke-dashoffset: 0; stroke-linejoin: miter; stroke-miterlimit: 4; fill: rgb(37,99,235); fill-rule: nonzero; opacity: 1;" vector-effect="non-scaling-stroke"  transform=" translate(-200.27, -173.89)" d="M 267.6875 212.027344 L 267.6875 218.320312 L 280.101562 218.320312 C 281.410156 218.320312 282.6875 218.5 283.902344 218.828125 L 283.902344 212.027344 C 283.902344 165.902344 246.394531 128.390625 200.273438 128.390625 C 177.933594 128.390625 156.9375 137.097656 141.140625 152.894531 C 125.335938 168.695312 116.636719 189.691406 116.636719 212.027344 L 116.636719 219.390625 C 118.386719 218.707031 120.289062 218.320312 122.277344 218.320312 L 132.855469 218.320312 L 132.855469 212.027344 C 132.855469 194.027344 139.859375 177.097656 152.601562 164.359375 C 165.34375 151.617188 182.273438 144.609375 200.273438 144.609375 C 237.453125 144.609375 267.6875 174.84375 267.6875 212.027344" stroke-linecap="round" />
</g>
		<g transform="matrix(1.33 0 0 1.33 79.76 145.72)"  >
<path style="stroke: none; stroke-width: 1; stroke-dasharray: none; stroke-linecap: butt; stroke-dashoffset: 0; stroke-linejoin: miter; stroke-miterlimit: 4; fill: rgb(37,99,235); fill-rule: nonzero; opacity: 1;" vector-effect="non-scaling-stroke"  transform=" translate(-247.32, -296.79)" d="M 274.046875 289.570312 C 274.046875 301.007812 264.777344 310.273438 253.371094 310.273438 L 217.617188 310.273438 C 217.675781 310.746094 217.703125 311.253906 217.703125 311.757812 C 217.703125 312.261719 217.675781 312.769531 217.617188 313.242188 L 253.371094 313.242188 C 266.414062 313.242188 277.015625 302.640625 277.015625 289.570312 L 277.015625 280.335938 L 274.046875 280.335938 Z M 274.046875 289.570312" stroke-linecap="round" />
</g>
		<g transform="matrix(1.33 0 0 1.33 9.89 165.68)"  >
<path style="stroke: none; stroke-width: 1; stroke-dasharray: none; stroke-linecap: butt; stroke-dashoffset: 0; stroke-linejoin: miter; stroke-miterlimit: 4; fill: rgb(37,99,235); fill-rule: nonzero; opacity: 1;" vector-effect="non-scaling-stroke"  transform=" translate(-194.92, -311.76)" d="M 204.179688 301.199219 L 185.609375 301.199219 C 182.804688 301.199219 180.160156 302.292969 178.167969 304.289062 C 176.175781 306.273438 175.082031 308.929688 175.082031 311.765625 C 175.082031 317.59375 179.804688 322.328125 185.609375 322.328125 L 204.179688 322.328125 C 206.972656 322.328125 209.699219 321.203125 211.660156 319.242188 C 213.648438 317.253906 214.75 314.597656 214.75 311.765625 C 214.75 305.9375 210.007812 301.199219 204.179688 301.199219" stroke-linecap="round" />
</g>
		<g transform="matrix(1.33 0 0 1.33 118.02 82.44)"  >
<path style="stroke: none; stroke-width: 1; stroke-dasharray: none; stroke-linecap: butt; stroke-dashoffset: 0; stroke-linejoin: miter; stroke-miterlimit: 4; fill: rgb(37,99,235); fill-rule: nonzero; opacity: 1;" vector-effect="non-scaling-stroke"  transform=" translate(-276.01, -249.33)" d="M 280.101562 221.285156 L 260.800781 221.285156 C 259.980469 221.285156 259.316406 221.949219 259.316406 222.769531 L 259.316406 275.882812 C 259.316406 276.703125 259.980469 277.371094 260.800781 277.371094 L 280.101562 277.371094 C 287.054688 277.371094 292.710938 271.710938 292.710938 264.757812 L 292.710938 233.898438 C 292.710938 226.941406 287.054688 221.285156 280.101562 221.285156" stroke-linecap="round" />
</g>
		<g transform="matrix(1.33 0 0 1.33 -81.53 82.44)"  >
<path style="stroke: none; stroke-width: 1; stroke-dasharray: none; stroke-linecap: butt; stroke-dashoffset: 0; stroke-linejoin: miter; stroke-miterlimit: 4; fill: rgb(37,99,235); fill-rule: nonzero; opacity: 1;" vector-effect="non-scaling-stroke"  transform=" translate(-126.35, -249.33)" d="M 141.566406 221.285156 L 122.265625 221.285156 C 115.316406 221.285156 109.65625 226.941406 109.65625 233.898438 L 109.65625 264.757812 C 109.65625 271.710938 115.316406 277.371094 122.265625 277.371094 L 141.566406 277.371094 C 142.386719 277.371094 143.050781 276.703125 143.050781 275.882812 L 143.050781 222.769531 C 143.050781 221.949219 142.386719 221.285156 141.566406 221.285156" stroke-linecap="round" />
</g>
		<g transform="matrix(1.33 0 0 1.33 -84.05 -68.86)" clip-path="url(#CLIPPATH_6)"  >
<clipPath id="CLIPPATH_6" >
	<path transform="matrix(1 0 0 1 0 -0.02) translate(-124.46, -135.84)" id="5" d="M 114.964844 51.34375 L 133.964844 51.34375 L 133.964844 220.332031 L 114.964844 220.332031 Z M 114.964844 51.34375" stroke-linecap="round" />
</clipPath>
<path style="stroke: none; stroke-width: 1; stroke-dasharray: none; stroke-linecap: butt; stroke-dashoffset: 0; stroke-linejoin: miter; stroke-miterlimit: 4; fill: rgb(37,99,235); fill-rule: nonzero; opacity: 1;" vector-effect="non-scaling-stroke"  transform=" translate(-124.46, -135.85)" d="M 114.964844 51.34375 L 133.964844 51.34375 L 133.964844 220.363281 L 114.964844 220.363281 Z M 114.964844 51.34375" stroke-linecap="round" />
</g>
</g>
</g>
</svg>