<svg width="123" height="81" viewBox="0 0 123 81" fill="none" xmlns="http://www.w3.org/2000/svg">
<g clip-path="url(#clip0_1001_2170)">
<path d="M21.1538 0.00439453C9.47348 0.00439453 0 9.47787 0 21.1582C0 32.8386 9.47348 58.9229 21.1538 58.9229C32.8342 58.9229 42.3076 32.8437 42.3076 21.1582C42.3076 9.47271 32.8393 0.00439453 21.1538 0.00439453ZM21.1538 36.384C12.9621 36.384 6.32599 29.7428 6.32599 21.5562C6.32599 13.3696 12.9672 6.72834 21.1538 6.72834C29.3404 6.72834 35.9817 13.3696 35.9817 21.5562C35.9817 29.7428 29.3404 36.384 21.1538 36.384Z" fill="#5531EB"/>
<path d="M21.1591 25.4373C24.8803 25.4373 27.9244 22.3932 27.9244 18.672C27.9244 14.9509 24.8803 11.9067 21.1591 11.9067C17.4379 11.9067 14.3938 14.9509 14.3938 18.672C14.3938 22.3932 17.4379 25.4373 21.1591 25.4373Z" fill="#5531EB"/>
<path d="M32.772 30.8438C32.5963 30.3993 32.3586 29.9859 32.095 29.6034C30.7357 27.5929 28.6374 26.2647 26.2755 25.9391C25.9809 25.9081 25.6553 25.9701 25.4176 26.1458C24.1772 27.0606 22.699 27.5361 21.164 27.5361C19.6291 27.5361 18.1509 27.0658 16.9105 26.1458C16.6728 25.9701 16.3472 25.8822 16.0526 25.9391C13.6907 26.2647 11.5614 27.5929 10.2331 29.6034C9.96953 29.9859 9.73179 30.4303 9.55606 30.8438C9.4682 31.0195 9.49921 31.2262 9.58707 31.4071C9.82482 31.8206 10.1194 32.2341 10.383 32.5907C10.7965 33.154 11.2409 33.6553 11.7423 34.1257C12.1557 34.5391 12.626 34.9216 13.1015 35.3092C15.4376 37.0509 18.244 37.9709 21.1382 37.9709C24.0325 37.9709 26.844 37.0561 29.1749 35.3092C29.6452 34.9526 30.1207 34.5391 30.5342 34.1257C31.0045 33.6553 31.48 33.1489 31.8934 32.5907C32.188 32.2082 32.4568 31.8206 32.6893 31.4071C32.8392 31.2314 32.8651 31.0247 32.7772 30.8438H32.772Z" fill="#5531EB"/>
<path d="M58.0967 7.99435C57.9313 8.31479 57.6419 8.53702 57.2233 8.6714C56.8046 8.80577 56.2465 8.86779 55.5539 8.86779C54.8614 8.86779 54.3032 8.80061 53.8846 8.6714C53.4659 8.54219 53.1765 8.30962 53.0111 7.97885C52.8457 7.64808 52.7475 7.35865 52.7114 7.1054C52.6803 6.85216 52.6597 6.47487 52.6597 5.96321C52.6597 5.45155 52.6752 5.07943 52.7114 4.82102C52.7424 4.56777 52.8406 4.28868 52.9904 3.97859C53.3005 3.38423 54.1585 3.08447 55.5694 3.08447C56.9804 3.08447 57.7918 3.38423 58.0812 3.97859C58.2569 4.30936 58.3603 4.60395 58.3965 4.85203C58.4275 5.10528 58.4482 5.48256 58.4482 5.99422C58.4482 6.50588 58.4327 6.88317 58.3965 7.13641C58.3655 7.38966 58.2621 7.67392 58.0967 7.99435ZM52.6648 14.1239C52.6648 13.6175 52.6803 13.2402 52.7165 12.9818C52.7475 12.7285 52.8457 12.4391 52.9956 12.1083C53.3057 11.5346 54.1636 11.2504 55.5746 11.2504C56.6341 11.2504 57.3783 11.4364 57.8228 11.8137C58.1949 12.1238 58.3965 12.5941 58.4171 13.235C58.4378 13.4572 58.4482 13.7725 58.4482 14.1911V25.7526C58.4482 26.2591 58.4327 26.6416 58.3965 26.8948C58.3655 27.148 58.2569 27.4375 58.0812 27.7682C57.797 28.3419 56.9494 28.6262 55.5384 28.6262C54.1275 28.6262 53.3005 28.3264 52.9956 27.7321C52.8406 27.4013 52.7475 27.117 52.7165 26.8741C52.6855 26.6312 52.6648 26.2488 52.6648 25.7164V14.1239Z" fill="#5531EB"/>
<path d="M78.6614 12.9303C78.7958 11.6951 79.6641 11.0801 81.2714 11.0801C82.1294 11.0801 82.7702 11.1473 83.1889 11.2765C83.6075 11.4108 83.8969 11.6383 84.0623 11.969C84.2277 12.2998 84.3259 12.5944 84.3621 12.8425C84.3931 13.0957 84.4137 13.473 84.4137 13.9847V25.5461C84.4137 26.0526 84.3982 26.4351 84.3621 26.6883C84.331 26.9416 84.2329 27.231 84.083 27.5618C83.7729 28.1354 83.0183 28.4197 81.8193 28.4197C80.6202 28.4197 79.814 28.2698 79.4057 27.9752C78.9974 27.6806 78.7596 27.2413 78.6976 26.6677C77.881 27.8357 76.5218 28.4197 74.6198 28.4197C72.7179 28.4197 70.9452 27.5514 69.3172 25.8097C67.6891 24.068 66.8726 22.0472 66.8726 19.7473C66.8726 17.4474 67.6943 15.4318 69.3327 13.7004C70.971 11.9742 72.7748 11.1059 74.7335 11.1059C75.4829 11.1059 76.1651 11.2403 76.7802 11.5039C77.3952 11.7675 77.8242 12.0155 78.0671 12.2481C78.31 12.4807 78.5064 12.7029 78.6614 12.9252V12.9303ZM72.6507 19.799C72.6507 20.5277 72.935 21.1789 73.5086 21.7629C74.0823 22.347 74.7749 22.6364 75.5915 22.6364C76.4081 22.6364 77.0851 22.3366 77.6226 21.7423C78.1601 21.1479 78.434 20.4915 78.434 19.7783C78.434 19.0651 78.1756 18.3984 77.6588 17.7782C77.142 17.1632 76.4494 16.8531 75.576 16.8531C74.7025 16.8531 73.9996 17.1632 73.4621 17.7782C72.9246 18.3932 72.6507 19.0651 72.6507 19.7938V19.799Z" fill="#5531EB"/>
<path d="M92.7346 13.3952C93.7683 11.8292 95.0138 11.0488 96.4661 11.0488C98.7143 11.0488 100.384 12.005 101.485 13.9224C101.727 13.5916 102.017 13.2454 102.358 12.8836C102.699 12.5218 103.242 12.1238 103.991 11.6949C104.741 11.2659 105.511 11.0488 106.301 11.0488C108.064 11.0488 109.537 11.7259 110.725 13.08C111.914 14.4341 112.508 16.6771 112.508 19.8039V25.5872C112.508 26.0937 112.493 26.471 112.457 26.7294C112.426 26.9827 112.317 27.2721 112.142 27.6029C111.857 28.1972 111.005 28.497 109.599 28.497C108.193 28.497 107.361 28.1869 107.056 27.5719C106.901 27.2411 106.808 26.9517 106.777 26.6984C106.746 26.4452 106.725 26.0679 106.725 25.5562V19.7781C106.725 17.8606 106.043 16.9045 104.679 16.9045C103.908 16.9045 103.386 17.1577 103.107 17.6642C102.833 18.1707 102.694 18.8891 102.694 19.8091V25.5924C102.694 26.1196 102.678 26.5072 102.642 26.7501C102.611 26.993 102.503 27.2773 102.327 27.608C102.017 28.2024 101.159 28.5022 99.748 28.5022C98.337 28.5022 97.5101 28.1921 97.2052 27.577C97.0501 27.2463 96.9571 26.9568 96.9261 26.7036C96.8951 26.4503 96.8744 26.0731 96.8744 25.5614V19.7832C96.8744 17.8658 96.1922 16.9097 94.8278 16.9097C93.4633 16.9097 92.8483 17.8658 92.8483 19.7832V25.6286C92.8483 26.1351 92.8328 26.5175 92.7966 26.7708C92.7656 27.024 92.6571 27.3134 92.4814 27.6442C92.1506 28.2179 91.2926 28.5022 89.9024 28.5022C88.5121 28.5022 87.6645 28.2024 87.3596 27.608C87.2045 27.2773 87.1115 26.993 87.0805 26.7501C87.0495 26.5072 87.0288 26.1247 87.0288 25.5924V13.9534C87.0288 13.4469 87.0443 13.0696 87.0805 12.8112C87.1115 12.558 87.22 12.2789 87.3958 11.9688C87.7265 11.3744 88.5069 11.0747 89.7422 11.0747C90.9774 11.0747 91.7785 11.2711 92.1558 11.669C92.5279 12.067 92.7191 12.6407 92.7191 13.3849L92.7346 13.3952Z" fill="#5531EB"/>
<path d="M62.3089 41.5368C64.5106 41.5368 66.3453 42.374 67.808 44.0485C69.2706 45.7231 70.0045 47.7697 70.0045 50.1936V56.008C70.0045 56.5145 69.989 56.8969 69.9528 57.1502C69.9218 57.4034 69.8133 57.6928 69.6376 58.0236C69.3533 58.5973 68.5005 58.8815 67.0948 58.8815C65.689 58.8815 64.9137 58.5973 64.583 58.0236C64.4072 57.6928 64.3039 57.3982 64.2677 57.1295C64.2367 56.8659 64.216 56.468 64.216 55.9408V50.1626C64.216 49.2582 63.9628 48.5553 63.4563 48.0488C62.9498 47.5423 62.3037 47.2891 61.5233 47.2891C60.7429 47.2891 60.0555 47.5268 59.4612 47.9971C58.8668 48.4726 58.5257 49.0049 58.4379 49.5993V56.008C58.4379 56.5145 58.4224 56.8969 58.3862 57.1502C58.3552 57.4034 58.2466 57.6928 58.0709 58.0236C57.7867 58.5973 56.9391 58.8815 55.5281 58.8815C54.1172 58.8815 53.2902 58.5818 52.9853 57.9874C52.8303 57.6567 52.7372 57.3724 52.7062 57.1295C52.6752 56.8866 52.6545 56.5041 52.6545 55.9718V36.2186C52.6545 35.7121 52.67 35.3348 52.7062 35.0764C52.7372 34.8231 52.8354 34.5441 52.9853 34.234C53.2954 33.6396 54.1533 33.3398 55.5643 33.3398C56.9752 33.3398 57.7867 33.6396 58.0761 34.234C58.2518 34.5647 58.3552 34.8593 58.3913 35.1074C58.4224 35.3606 58.443 35.7379 58.443 36.2496V43.5472C59.5439 42.2035 60.8308 41.5316 62.3089 41.5316V41.5368Z" fill="#5531EB"/>
<path d="M89.4269 48.0954C89.4269 49.4495 89.091 50.4522 88.4191 51.1034C87.7472 51.7546 87.003 52.0802 86.1916 52.0802H78.3616C78.3616 52.6952 78.7234 53.2172 79.4521 53.6307C80.1809 54.0493 80.9044 54.256 81.6331 54.256C82.9097 54.256 83.9124 54.1268 84.6411 53.8581L85.0029 53.7237C85.53 53.4808 85.9745 53.3619 86.326 53.3619C87.0288 53.3619 87.6335 53.8581 88.1452 54.8504C88.4295 55.4448 88.5742 55.9512 88.5742 56.3699C88.5742 58.3287 86.2278 59.3106 81.5401 59.3106C79.9121 59.3106 78.4598 59.0316 77.1988 58.4682C75.9325 57.9049 74.9454 57.1658 74.2425 56.2407C72.8574 54.4576 72.1597 52.4626 72.1597 50.261C72.1597 47.4856 73.059 45.2684 74.8524 43.6042C76.6457 41.94 78.8888 41.1079 81.5763 41.1079C84.6359 41.1079 86.8841 42.1881 88.3158 44.3433C89.0652 45.4906 89.4373 46.7362 89.4373 48.0903L89.4269 48.0954ZM82.4549 49.0723C83.2922 49.0723 83.7108 48.7208 83.7108 48.0179C83.7108 47.5114 83.5196 47.1031 83.132 46.793C82.7443 46.4829 82.1965 46.3331 81.4781 46.3331C80.7597 46.3331 80.0517 46.6276 79.3488 47.2065C78.6459 47.7905 78.2893 48.4107 78.2893 49.0723H82.4497H82.4549Z" fill="#5531EB"/>
<path d="M103.402 41.671C103.821 41.8054 104.167 42.0276 104.441 42.3481C104.715 42.6685 104.854 43.1802 104.854 43.8831C104.854 44.5859 104.642 45.3612 104.229 46.1933C103.81 47.0306 103.206 47.4492 102.415 47.4492C102.017 47.4492 101.64 47.3613 101.273 47.1856C100.906 47.0099 100.43 46.922 99.8359 46.922C99.2415 46.922 98.6834 47.1339 98.1665 47.5474C97.6497 47.966 97.3913 48.4725 97.3913 49.0669V56.0027C97.3913 56.5092 97.3758 56.8916 97.3396 57.1449C97.3086 57.3981 97.2 57.6876 97.0243 58.0183C96.6936 58.592 95.8356 58.8763 94.4454 58.8763C93.3859 58.8763 92.6261 58.6902 92.1661 58.3129C91.8147 58.0028 91.6131 57.5325 91.5718 56.8917V44.3379C91.5718 43.8314 91.5873 43.4541 91.6235 43.1957C91.6545 42.9424 91.7527 42.6633 91.9026 42.3532C92.2127 41.7589 93.0706 41.4591 94.4815 41.4591C95.8046 41.4591 96.6264 41.7124 96.9571 42.2189C97.2001 42.5703 97.3189 42.9321 97.3189 43.3094C97.4275 43.1543 97.5877 42.9683 97.7996 42.746C98.0063 42.5238 98.4559 42.2292 99.1382 41.8519C99.8204 41.4798 100.42 41.2886 100.937 41.2886C101.454 41.2886 101.888 41.3144 102.239 41.3713C102.591 41.4281 102.978 41.5211 103.397 41.6504L103.402 41.671Z" fill="#5531EB"/>
<path d="M122.463 48.0954C122.463 49.4495 122.127 50.4522 121.455 51.1034C120.783 51.7546 120.039 52.0802 119.227 52.0802H111.397C111.397 52.6952 111.759 53.2172 112.488 53.6307C113.217 54.0493 113.94 54.256 114.669 54.256C115.945 54.256 116.948 54.1268 117.677 53.8581L118.039 53.7237C118.566 53.4808 119.01 53.3619 119.362 53.3619C120.064 53.3619 120.669 53.8581 121.181 54.8504C121.465 55.4448 121.61 55.9512 121.61 56.3699C121.61 58.3287 119.263 59.3106 114.576 59.3106C112.948 59.3106 111.495 59.0316 110.234 58.4682C108.968 57.9049 107.981 57.1658 107.278 56.2407C105.893 54.4576 105.195 52.4626 105.195 50.261C105.195 47.4856 106.095 45.2684 107.888 43.6042C109.681 41.94 111.924 41.1079 114.612 41.1079C117.672 41.1079 119.92 42.1881 121.351 44.3433C122.101 45.4906 122.473 46.7362 122.473 48.0903L122.463 48.0954ZM115.491 49.0723C116.328 49.0723 116.746 48.7208 116.746 48.0179C116.746 47.5114 116.555 47.1031 116.168 46.793C115.78 46.4829 115.232 46.3331 114.514 46.3331C113.795 46.3331 113.087 46.6276 112.384 47.2065C111.682 47.7905 111.325 48.4107 111.325 49.0723H115.485H115.491Z" fill="#5531EB"/>
<path d="M13.7632 73.6113H11.3393L10.6002 74.9292H13.479L13.0242 77.1929H9.334L7.86104 79.8443H5.01848L6.51211 77.1929H4.86343L3.36979 79.8443H0.50139L1.99503 77.1929H0.449707L0.92519 74.9292H3.27676L4.01583 73.6113H1.20428L1.69527 71.3476H5.27689L6.82221 68.6084H9.63376L8.10395 71.3476H9.77331L11.3031 68.6084H14.1147L12.6055 71.3476H14.2542L13.7632 73.6113ZM6.82738 73.5751L6.03663 74.9809H7.77318L8.57943 73.5751H6.82221H6.82738Z" fill="#403A58"/>
<path d="M24.6321 79.8494H21.526L18.5232 72.65L16.9779 79.8494H14.0991L16.5075 68.6084H19.7222L22.601 75.8285L24.1618 68.6084H27.0405L24.6321 79.8494Z" fill="#403A58"/>
<path d="M29.7953 76.247C29.5472 77.565 30.3224 78.0198 31.1132 78.0198C31.9039 78.0198 32.4983 77.6528 32.7981 77.1412H35.8215C34.9584 79.162 33.2735 80.0044 31.0098 80.0044C27.3403 80.0044 26.7253 77.5288 27.2163 75.1927C27.7073 72.8928 29.0976 70.6446 32.6068 70.7325C36.297 70.8203 36.6278 73.6681 35.9094 76.247H29.7953ZM32.2347 72.7326C31.3044 72.7326 30.6015 73.3115 30.2346 74.3813H33.4493C33.7128 73.3115 33.134 72.7326 32.2399 72.7326H32.2347Z" fill="#403A58"/>
<path d="M45.2484 79.8496H44.0183L43.6669 78.4438C42.6642 79.4258 41.7339 80.0046 40.2971 80.0046C37.222 80.0046 36.7155 77.3895 37.1858 75.1206C37.6768 72.8362 39.0309 70.7275 41.9096 70.7275C43.3826 70.7275 44.2457 71.3064 44.8607 72.309L45.8272 70.8878H47.1451L45.2484 79.8444V79.8496ZM42.349 72.9809C40.7675 72.9292 40.261 73.8595 39.9612 75.2446C39.7338 76.3145 39.5581 77.7047 41.0827 77.7409C42.6797 77.7926 43.1914 76.7951 43.4911 75.3687C43.8271 73.8595 43.7186 73.0171 42.349 72.9809Z" fill="#403A58"/>
<path d="M53.4971 73.1563C51.4608 73.1718 50.8975 74.2262 50.6701 75.3891L49.7191 79.8493H46.9282L48.8405 70.8926H50.0705L50.4065 72.2777C51.0732 71.4353 52.1275 70.7686 54.0398 70.7324L53.4971 73.1563Z" fill="#403A58"/>
<path d="M59.787 76.5107L59.0686 79.8494H56.102L56.8566 76.3195L54.5205 68.6084H57.3837L58.7378 73.9834L62.4952 68.6084H65.746L59.7922 76.5107H59.787Z" fill="#403A58"/>
<path d="M67.1413 80.0043C63.4873 80.0043 62.9602 77.3892 63.4356 75.0893C63.9473 72.7894 65.2445 70.7324 68.7228 70.7324C72.2011 70.7324 72.9194 73.3166 72.444 75.6165C71.9323 77.968 70.6351 80.0095 67.1413 80.0095V80.0043ZM68.5264 73.0168C67.0844 73.0168 66.4177 73.6835 66.0663 75.1048C65.7149 76.5778 66.1025 77.6528 67.3119 77.6528C68.8055 77.6528 69.4567 77.0532 69.8081 75.5958C70.1596 74.1538 69.8443 73.0116 68.5264 73.0116V73.0168Z" fill="#403A58"/>
<path d="M81.3489 79.8492H80.1189L79.7158 78.6398C78.77 79.5546 77.943 80.0094 76.4494 80.0094C73.3743 80.0094 73.1107 78.1644 73.6223 75.7766L74.6405 70.8926H77.3952L76.2892 76.0919C76.0256 77.3581 76.1651 77.7612 77.3073 77.7612C78.6253 77.7612 79.1524 77.0583 79.416 75.7921L80.4703 70.8926H83.2457L81.3489 79.8492Z" fill="#403A58"/>
<path d="M93.9029 79.8494H90.7967L87.7939 72.65L86.2486 79.8494H83.3699L85.7783 68.6084H88.993L91.8717 75.8285L93.4325 68.6084H96.3113L93.9029 79.8494Z" fill="#403A58"/>
<path d="M100.224 80.0043C96.5696 80.0043 96.0424 77.3892 96.5179 75.0893C97.0296 72.7894 98.3268 70.7324 101.805 70.7324C105.283 70.7324 106.002 73.3166 105.526 75.6165C105.015 77.968 103.717 80.0095 100.224 80.0095V80.0043ZM101.609 73.0168C100.167 73.0168 99.5 73.6835 99.1486 75.1048C98.7971 76.5778 99.1847 77.6528 100.394 77.6528C101.888 77.6528 102.539 77.0532 102.89 75.5958C103.242 74.1538 102.927 73.0116 101.609 73.0116V73.0168Z" fill="#403A58"/>
<path d="M116.607 79.8492H113.517L113.201 74.0194L110.478 79.8492H107.475L106.932 70.8926H109.832L109.671 76.9343L112.447 70.8926H115.134L115.449 76.9343L117.946 70.8926H121.052L116.607 79.8492Z" fill="#403A58"/>
</g>
<defs>
<clipPath id="clip0_1001_2170">
<rect width="122.463" height="80" fill="white" transform="translate(0 0.00439453)"/>
</clipPath>
</defs>
</svg>
