<svg width="200" height="63" viewBox="0 0 200 63" fill="none" xmlns="http://www.w3.org/2000/svg">
<g clip-path="url(#clip0_1758_2017)">
<path d="M178.049 43.0585C178.146 42.9608 178.179 40.6495 178.179 33.3248C178.179 27.6277 178.222 23.4065 178.287 22.9725C178.871 18.9357 182.633 16.0384 186.569 16.5918C189.607 17.015 191.942 19.066 192.839 22.0827C193.023 22.6795 193.034 23.5151 193.066 32.8147C193.099 39.8465 193.142 42.95 193.229 43.0476C193.402 43.2647 199.727 43.2538 199.899 43.0368C199.997 42.9174 200.018 40.2697 199.986 32.4241L199.954 21.9741L199.672 20.8347C199.197 18.8923 198.624 17.5793 197.553 15.9516C196.829 14.8556 195.304 13.2387 194.202 12.4032C192.677 11.2529 190.558 10.2871 188.612 9.86394C187.293 9.57095 184.741 9.49499 183.422 9.71202C181.422 10.0376 179.271 10.9057 177.562 12.0668C176.438 12.8155 174.784 14.4432 173.962 15.6044C172.859 17.1453 172.027 19.0334 171.551 21.106C171.335 22.0501 171.324 22.3865 171.291 32.4892C171.259 40.2588 171.281 42.9283 171.378 43.0368C171.551 43.243 177.843 43.2647 178.049 43.0585Z" fill="#01080D"/>
<path d="M54.578 20.5093H46.1664V21.4208C46.1664 22.5276 46.4367 23.4717 46.9773 24.2747C47.4206 24.9367 47.8314 25.2731 48.7072 25.6854C49.2802 25.9459 49.4856 25.9893 50.383 25.9893C51.2804 25.9893 51.475 25.9567 52.1345 25.642C53.4211 25.0343 54.1888 24.112 54.5455 22.7338C54.7185 22.0502 54.751 21.4099 54.6429 20.8457L54.578 20.5093Z" fill="#57B33E"/>
<path d="M59.3784 13.2605C57.6594 11.5134 55.1726 10.2221 52.7724 9.82058C51.5183 9.6144 50.1776 9.56014 49.1829 9.65781C44.4149 10.1353 40.4578 13.0543 39.0739 17.1236C38.4468 18.9683 38.4035 20.531 38.9225 22.4191C39.9064 25.935 43.4959 32.728 48.3288 40.2046C50.3722 43.3624 50.3181 43.2973 50.3938 43.2973C50.556 43.2973 54.2212 37.5677 56.0268 34.5076C59.3892 28.7998 61.5732 24.1553 62.103 21.551C62.676 18.773 61.6057 15.5284 59.3784 13.2605ZM56.4809 20.7588C56.4268 22.3974 56.3619 22.9834 56.1998 23.4934C55.324 26.1954 53.0535 27.8882 50.2749 27.8882C47.7557 27.8882 45.5826 26.2822 44.6852 23.7647C44.4149 23.0159 44.3825 22.7881 44.35 20.9325C44.296 18.4366 44.2311 18.556 45.7339 18.556C46.9989 18.556 46.9232 18.6645 46.9232 16.7872V15.5176H48.7612V18.6102L50.4911 18.5777L52.221 18.5451V15.5176H53.9401L53.9725 17.0585L54.005 18.6102L55.2808 18.6428L56.5457 18.6754L56.4809 20.7588Z" fill="#57B33E"/>
<path d="M71.4227 43.2755L74.7636 43.243L74.796 21.7571C74.8177 1.64942 74.8068 0.260435 74.6339 0.130217C74.5041 0.0325543 73.6608 0 71.3471 0C68.6657 0 68.2116 0.0217029 68.0711 0.173623C67.9197 0.325543 67.8981 2.41987 67.8981 21.6812C67.8981 33.4224 67.9413 43.0911 67.9846 43.167C68.0603 43.2647 68.8171 43.2972 71.4227 43.2755Z" fill="#01080D"/>
<path d="M13.2985 39.9333C14.0337 41.5719 14.6716 42.9826 14.7365 43.0477C14.8122 43.1562 15.5906 43.1887 17.9476 43.1887H21.0506L24.0022 36.6453C25.624 33.0535 28.6621 26.3473 30.738 21.7571C32.8138 17.1561 34.5545 13.3039 34.5978 13.1845C34.6518 13.0651 34.8789 12.5551 35.1168 12.0451C36.1006 9.90736 36.1223 9.84225 35.7979 9.65778C35.4735 9.48415 28.8459 9.50586 28.6405 9.67948C28.5432 9.75544 27.0728 12.9458 25.3537 16.7655C23.6454 20.5852 21.6669 24.98 20.9641 26.5318C20.2721 28.0835 19.3531 30.1128 18.9423 31.0351C18.3801 32.2939 18.1314 32.7279 17.98 32.7497C17.8611 32.7714 17.7206 32.7171 17.6557 32.6411C17.5908 32.5652 15.9366 28.8648 13.9689 24.4157C8.00074 10.9382 7.46015 9.72289 7.31959 9.63607C7.12498 9.50586 0.410849 9.53841 0.194613 9.66863C0.0864945 9.72288 0 9.8531 0 9.95076C0 10.081 8.36834 28.9516 11.5146 35.9183C11.7632 36.4826 12.5741 38.2947 13.2985 39.9333Z" fill="#01080D"/>
<path d="M138.121 56.5903C137.807 56.5903 137.796 56.612 137.764 57.0895L137.732 57.5778L137.31 57.1763C137.083 56.9593 136.661 56.6988 136.38 56.6012C134.931 56.102 133.396 56.7314 132.693 58.0987C132.455 58.5544 132.401 58.7932 132.401 59.466C132.401 60.1387 132.455 60.3775 132.693 60.8332C133.591 62.5912 135.948 63.0578 137.31 61.7556L137.732 61.3541L137.764 61.8424C137.796 62.3199 137.807 62.3416 138.121 62.3416H138.445V56.5903H138.121ZM137.721 59.683C137.548 62.0377 134.38 62.6563 133.299 60.5402C133.018 59.9868 133.018 58.9451 133.299 58.4025C133.558 57.8925 134.012 57.4693 134.499 57.2523C135.375 56.8725 136.531 57.1329 137.169 57.8708C137.613 58.3808 137.775 58.9125 137.721 59.683Z" fill="#01080D"/>
<path d="M41.8957 59.3032C40.674 58.9451 40.328 58.7932 40.1118 58.5219C39.8199 58.1421 39.8415 57.9034 40.2091 57.491C40.5118 57.1546 40.5659 57.1329 41.247 57.1329C41.9282 57.1329 41.9822 57.1438 42.339 57.5453C42.6958 57.9359 42.7174 57.9468 42.9769 57.7732C43.1715 57.6429 43.2148 57.5561 43.1499 57.4151C42.9877 57.1221 42.5661 56.7748 42.1444 56.5903C41.2146 56.2105 39.9929 56.5361 39.4847 57.2957C39.2793 57.5995 39.236 57.7732 39.2793 58.1964C39.355 59.0862 39.755 59.3575 41.7227 59.9C42.285 60.052 42.7066 60.4426 42.7066 60.8116C42.7066 60.9635 42.5769 61.2348 42.4147 61.4192C42.0039 61.8859 41.1389 61.9835 40.4037 61.658C40.1226 61.5278 39.8956 61.3867 39.8956 61.3433C39.8956 61.2999 39.8199 61.1697 39.7442 61.0611C39.6144 60.8984 39.5496 60.8875 39.3117 60.996C39.1604 61.072 39.0306 61.1805 39.0306 61.2348C39.0306 61.289 39.236 61.5495 39.4955 61.799C40.0469 62.3525 40.6524 62.5478 41.5389 62.4718C42.6309 62.3742 43.3553 61.7122 43.3553 60.8333C43.3445 60.0303 42.9445 59.6071 41.8957 59.3032Z" fill="#01080D"/>
<path d="M147.073 56.4276C146.705 56.4384 146.035 56.7422 145.743 57.0244L145.43 57.3174L145.397 56.9593C145.365 56.6337 145.321 56.5903 145.019 56.5578L144.662 56.5252V62.4067L145.019 62.3741L145.365 62.3416L145.419 60.2798C145.451 58.9234 145.516 58.1421 145.603 57.9793C145.819 57.6212 146.273 57.2957 146.792 57.1763C147.203 57.0678 147.257 57.0135 147.257 56.7422C147.257 56.5144 147.203 56.4276 147.073 56.4276Z" fill="#01080D"/>
<path d="M154.295 56.5361L154.263 55.7439C154.23 54.9626 154.23 54.9518 153.96 55.0169C153.711 55.0711 153.69 55.1362 153.657 55.809L153.625 56.5361H152.987C152.555 56.5361 152.338 56.6446 152.338 56.8616V57.1872H153.636V59.3249C153.636 61.2782 153.657 61.506 153.852 61.8316C154.122 62.2765 154.436 62.3959 155.322 62.3959H156.014V61.7448H155.322C154.295 61.7448 154.285 61.7339 154.285 59.2272V57.1872H156.014V56.5361H154.295Z" fill="#01080D"/>
<path d="M110.151 59.0319C109.253 58.7931 108.875 58.218 109.21 57.5995C109.275 57.4801 109.491 57.3173 109.686 57.2305C110.432 56.9267 111.221 57.1003 111.664 57.6754C111.859 57.925 111.913 57.9359 112.108 57.8165C112.237 57.7405 112.335 57.6212 112.335 57.5561C112.335 57.3173 111.891 56.8724 111.437 56.6554C110.551 56.2213 109.437 56.4167 108.821 57.1003C108.496 57.4476 108.442 57.5886 108.442 58.0335C108.442 58.9451 108.745 59.2272 110.226 59.6938C111.502 60.1062 111.643 60.1821 111.805 60.5619C111.967 60.9634 111.74 61.4192 111.253 61.6688C110.507 62.0594 109.124 61.7122 108.929 61.0936C108.853 60.8441 108.68 60.8224 108.399 61.0394C108.205 61.1913 108.205 61.2022 108.421 61.5494C108.55 61.7556 108.853 62.0377 109.113 62.1788C109.502 62.4067 109.718 62.4501 110.453 62.4501C111.232 62.4501 111.372 62.4175 111.783 62.1462C112.659 61.5711 112.8 60.486 112.086 59.8349C111.74 59.5093 111.297 59.3249 110.151 59.0319Z" fill="#01080D"/>
<path d="M93.2518 57.784L91.9436 57.7514C91.23 57.7406 90.6137 57.7623 90.5705 57.7948C90.5272 57.8382 90.4948 58.4568 90.4948 59.1621V60.4426H93.3167L93.2843 59.1078L93.2518 57.784Z" fill="#01080D"/>
<path d="M54.4374 56.5361H54.059V57.5887L53.6374 57.1872C53.3995 56.9593 52.9778 56.6988 52.6967 56.6012C52.167 56.4167 51.2804 56.3842 50.8155 56.5252C49.5829 56.905 48.6531 58.1638 48.6531 59.466C48.6531 60.7681 49.5397 61.9509 50.6966 62.3416C51.7561 62.6888 53.0427 62.385 53.7563 61.6145L54.059 61.289V62.3959H54.8158V56.5361H54.4374ZM53.9509 60.2798C53.6698 61.1262 52.6319 61.8533 51.7237 61.8533C50.6641 61.8533 49.637 61.0394 49.4208 60.0302C49.1829 58.88 49.7127 57.7623 50.7614 57.274C51.3993 56.981 52.3832 57.0461 52.967 57.4367C53.8752 58.0444 54.2861 59.2489 53.9509 60.2798Z" fill="#01080D"/>
<path d="M73.6824 60.9634C73.4338 60.8549 73.3689 60.8766 73.0554 61.1805C72.1472 62.0594 70.7633 62.0811 69.8226 61.2239C69.574 61.0068 69.3145 60.6705 69.228 60.4751C68.9361 59.7589 68.8171 59.7915 71.6931 59.7915H74.3095L74.2338 59.1838C74.1041 58.0444 73.5311 57.1546 72.6445 56.7097C71.8228 56.2973 70.7741 56.3299 69.8875 56.7856C69.401 57.0352 68.8712 57.6103 68.6225 58.1638C68.2982 58.8691 68.2982 60.1062 68.6333 60.7898C69.5091 62.5912 72.0174 63.0795 73.477 61.723C73.7365 61.4843 73.9527 61.2347 73.9527 61.1913C73.9527 61.1371 73.8338 61.0285 73.6824 60.9634ZM69.1307 58.8691C69.3253 58.077 69.8443 57.4693 70.5146 57.2305C71.639 56.8182 72.8391 57.2848 73.3148 58.3265C73.7041 59.173 73.8014 59.1404 71.293 59.1404H69.0658L69.1307 58.8691Z" fill="#01080D"/>
<path d="M61.411 56.0694V56.5361H60.9245C60.4596 56.5361 60.438 56.5469 60.438 56.8616C60.438 57.1763 60.4596 57.1871 60.9245 57.1871H61.411V62.3958H62.0597V57.1871H63.7896V56.5361H62.0273L62.103 56.026C62.2219 55.1579 62.6003 54.7998 63.422 54.7998C63.7572 54.7998 63.7896 54.7781 63.7896 54.4743C63.7896 54.1704 63.7788 54.1487 63.2815 54.1487C62.2435 54.1487 61.411 55.006 61.411 56.0694Z" fill="#01080D"/>
<path d="M122.93 57.1438L122.66 57.4693L122.336 57.0895C122.163 56.8833 121.86 56.6554 121.665 56.5795C120.898 56.2539 119.989 56.4384 119.341 57.0569L119.038 57.3391V56.9376C119.038 56.5686 119.016 56.5361 118.714 56.5361H118.389V62.3959H119.016L119.06 60.3558C119.092 58.5653 119.114 58.2832 119.308 57.9576C119.665 57.3499 120.043 57.1329 120.779 57.1329C121.352 57.1329 121.449 57.1655 121.762 57.491L122.119 57.8383L122.152 60.1171L122.184 62.3959H122.8L122.844 60.41C122.876 58.7172 122.909 58.37 123.092 58.0119C123.417 57.3608 123.795 57.1329 124.563 57.1329C125.136 57.1329 125.233 57.1655 125.547 57.491L125.903 57.8383L125.936 60.1279L125.968 62.4067L126.314 62.3742L126.66 62.3416L126.693 60.4969C126.725 58.4134 126.617 57.6646 126.195 57.1655C125.395 56.2105 123.709 56.1997 122.93 57.1438Z" fill="#01080D"/>
<path d="M131.061 34.3448C131.926 36.0811 132.791 37.2422 134.337 38.7939C136.813 41.2898 139.548 42.7873 142.986 43.536C144.251 43.8073 147.354 43.9158 148.706 43.7422C149.927 43.5794 152.003 43.0368 152.749 42.7004L153.311 42.44V38.642C153.311 34.1821 153.387 34.3991 152.133 35.2129C151.236 35.7989 150.219 36.2438 149.03 36.5911C148.295 36.8081 147.927 36.8407 146.446 36.8298C145.008 36.8298 144.565 36.7864 143.851 36.5911C140.521 35.6687 137.796 33.1295 136.715 29.9391C135.969 27.7689 135.948 25.566 136.629 23.3849C137.483 20.6612 139.451 18.4149 142.078 17.1453C143.332 16.5485 144.467 16.2663 145.959 16.2012C147.419 16.1361 148.381 16.2663 149.776 16.7112C152.533 17.601 154.966 19.9233 156.079 22.7229C156.782 24.4917 156.771 24.3506 156.771 34.0735C156.771 39.9333 156.804 42.95 156.879 43.0911C156.987 43.2864 157.139 43.2973 160.274 43.2973C162.988 43.2973 163.583 43.2756 163.68 43.1454C163.777 43.026 163.799 40.7689 163.766 33.7806C163.734 25.7288 163.702 24.4592 163.539 23.6562C162.793 19.8256 161.247 16.874 158.663 14.2697C157.279 12.8807 156.047 11.9691 154.414 11.1444C152.544 10.1895 150.976 9.66864 149.095 9.3865C147.819 9.19117 145.051 9.19117 143.743 9.39735C140.975 9.82056 137.926 11.1661 135.742 12.9241C134.639 13.8139 133.028 15.5393 132.272 16.657C130.044 19.945 129.082 23.3415 129.234 27.2914C129.342 29.8523 129.904 32.0226 131.061 34.3448Z" fill="#01080D"/>
<path d="M108.226 43.4058C110.691 43.4058 111.48 43.3733 111.545 43.2648C111.589 43.1997 111.653 39.0761 111.686 34.1278L111.74 25.1211L112.043 24.1662C112.616 22.3106 113.481 20.8891 114.832 19.576C116.919 17.5577 119.157 16.7004 122.714 16.5702L123.417 16.5485L123.449 13.1954C123.471 10.5802 123.438 9.82058 123.341 9.74462C123.201 9.66866 121.157 9.64696 120.498 9.73377C117.978 10.0268 116.367 10.4934 114.335 11.5026C109.242 14.0309 105.826 18.7296 104.864 24.5352C104.766 25.1103 104.723 27.8774 104.691 34.1929C104.647 42.2881 104.658 43.0694 104.82 43.2322C104.972 43.3841 105.383 43.4058 108.226 43.4058Z" fill="#01080D"/>
<path d="M82.7643 38.9025L83.0238 39.5535C83.7374 41.344 85.0672 42.5811 86.7647 43.0369C87.1756 43.1562 88.3865 43.1888 91.7489 43.1888C95.7061 43.1888 96.2142 43.1671 96.2683 43.0152C96.3007 42.9175 96.3332 41.4417 96.3332 39.7163C96.3332 37.0143 96.3115 36.5585 96.1602 36.4175C96.0196 36.2656 95.5655 36.2438 92.9274 36.2438C89.9974 36.2438 89.8461 36.233 89.738 36.0377C89.6623 35.8966 89.6298 32.6954 89.6298 26.4233C89.6298 20.1511 89.6623 16.95 89.738 16.8089C89.8461 16.6136 89.9974 16.6027 92.9599 16.6027C95.2412 16.6027 96.1061 16.5702 96.2034 16.4725C96.3007 16.3748 96.3332 15.4959 96.3332 13.1737C96.3332 11.4266 96.3007 9.92908 96.2683 9.83142C96.2142 9.6795 95.825 9.6578 93.0896 9.6578C90.3542 9.6578 89.9434 9.63609 89.8028 9.48417C89.6515 9.3431 89.6298 8.76798 89.6298 4.83975C89.6298 1.50836 89.5974 0.336401 89.5001 0.238738C89.4028 0.141075 88.527 0.108521 86.2133 0.108521C83.4671 0.108521 83.0238 0.130223 82.8833 0.282144C82.7211 0.434064 82.7103 2.23541 82.7319 19.6737L82.7643 38.9025Z" fill="#01080D"/>
</g>
<defs>
<clipPath id="clip0_1758_2017">
<rect width="200" height="62.5" fill="white"/>
</clipPath>
</defs>
</svg>
